<svg xmlns="http://www.w3.org/2000/svg" width="397.785" height="303.283" viewBox="0 0 397.785 303.283">
  <g id="Group_60" data-name="Group 60" transform="translate(-1401.871 -841.763)">
    <g id="Group_59" data-name="Group 59" transform="translate(1401.871 841.763)">
      <g id="Group_53" data-name="Group 53" transform="translate(0 106.329)">
        <path id="Path_275" data-name="Path 275" d="M908.818,498.151c-1.055-1.637-2.163-3.3-3.246-4.937-11.4-17.179-28.682-31.105-49.46-40.047a126.7,126.7,0,0,0-30.026-8.663c-37.4,3.967-74.4,5.309-110.113-10.553-30.735-14.818-77.08-13.49-100.588,9.741-2.567,4.533-2.726,9.4,2.972,13.056,8.4,5.382,21.83,2.879,31.623,3.7a75.088,75.088,0,0,1,34.286,11.3c9.543,6.155,16.173,14.512,24,22.049,8.765,8.449,19.252,14.019,32.816,14.838,6.491.4,12.87-.654,19.334.445a54.469,54.469,0,0,1,17.78,6.531c20.5,11.609,29.545,32.978,50.376,44.071,11.844,6.32,26.437,7.281,40.139,6.741,12.845-.49,22.746-5.453,30.154-14.231a56.574,56.574,0,0,0,12.261-24.879C913.146,517.345,911.26,507.771,908.818,498.151Z" transform="translate(-606.678 -414.227)" fill="#a8cfea"/>
        <path id="Path_276" data-name="Path 276" d="M714.933,436.216c35.716,15.862,72.71,14.52,110.113,10.553-.845-.134-1.689-.276-2.539-.4-13.815-1.92-27.768-.562-41.637-1.4-27.492-1.639-50.765-14.909-77.09-20.27a122.821,122.821,0,0,0-40.862-1.263c-12.952,1.78-26.99,5.337-37.726,11.913-3.876,2.363-8.429,6.335-10.848,10.607C637.854,422.725,684.2,421.4,714.933,436.216Z" transform="translate(-605.639 -416.491)" fill="#e6f3f8"/>
        <path id="Path_277" data-name="Path 277" d="M920.156,512.615c-.054-.328-.138-.654-.22-.959a1.543,1.543,0,0,0,1.108-1.827,63.5,63.5,0,0,0-6.85-14.978c-.141-.257-.251-.538-.389-.8a1.506,1.506,0,0,0-.471-.562c-8.322-12.78-20.972-23.732-34.815-32.112-20.693-12.5-45.131-18.607-70.457-18.723-8.017-.048-16.088.21-24.077-.469a116.241,116.241,0,0,1-21.86-4.19c-13.9-3.931-27.075-9.456-40.972-13.386-27.295-7.7-57.226-6.531-83.412,3.65-11.012,4.283-22.859,11.281-26.13,21.767-3.054,9.736,4.769,18.024,15.809,20.246,12.151,2.458,24.717.257,36.868,3.16,13.536,3.253,24.021,10.322,32.9,19.332,7.823,7.983,15.09,16.853,26.1,21.978a60.587,60.587,0,0,0,19.444,5.056c7.352.726,14.785-.749,22.027.819,27.295,5.875,37.7,31.386,57.7,45.431,10.987,7.7,24,11.045,38.087,11.726,13.539.631,27.075-.071,38.058-7.421a54.2,54.2,0,0,0,19.475-24.224C922.683,535.154,922.516,523.967,920.156,512.615ZM915.387,532.7a56.574,56.574,0,0,1-12.261,24.879c-7.408,8.777-17.309,13.741-30.154,14.231-13.7.54-28.3-.421-40.139-6.741C812,553.973,802.957,532.6,782.456,520.995a54.469,54.469,0,0,0-17.78-6.531c-6.463-1.1-12.842-.047-19.334-.445-13.564-.819-24.052-6.389-32.816-14.838-7.823-7.538-14.452-15.894-24-22.049a75.088,75.088,0,0,0-34.286-11.3c-9.794-.819-23.22,1.685-31.623-3.7-11.068-7.093-.113-18.795,7.876-23.663,10.736-6.577,24.773-10.134,37.726-11.913a122.82,122.82,0,0,1,40.861,1.263c26.325,5.361,49.6,18.63,77.09,20.27,13.869.842,27.822-.516,41.637,1.4a126.783,126.783,0,0,1,32.565,9.058c20.778,8.942,38.058,22.868,49.46,40.047,1.083,1.637,2.191,3.3,3.246,4.937C915.525,513.153,917.412,522.727,915.387,532.7Z" transform="translate(-610.944 -419.609)" fill="#00318b"/>
        <path id="Path_278" data-name="Path 278" d="M631.592,433.744c48.664,8.436,96.175,21.693,140.231,41.181,43.775,19.36,84.311,44.159,119.387,73.55q14.706,12.324,28.106,25.691c4.387,4.384,8.775,8.769,13.014,13.257,4.411,4.669,8.442,10,13.979,13.725.484.326,1.39.043,1.149-.564-1.93-4.853-5.734-9.006-9.3-13.116q-5.337-6.139-10.961-12.1c-7.833-8.328-16.36-16.24-25.094-23.9a472.614,472.614,0,0,0-56.133-42.118c-40.017-25.715-84.895-45.943-132.34-60.012a462.119,462.119,0,0,0-81.882-16.557A.486.486,0,0,0,631.592,433.744Z" transform="translate(-579.378 -404.331)" fill="#00318b"/>
      </g>
      <g id="Group_54" data-name="Group 54" transform="translate(159.57)">
        <path id="Path_279" data-name="Path 279" d="M826.937,446.946c-36.062-16.384-63.8-37.449-88.767-63.194-4.922-4.985-11.26-8.471-18.358-10.821a153.808,153.808,0,0,0-25.388.756h-.028a3.071,3.071,0,0,1-1.275.164,2.794,2.794,0,0,0-.445,0c-1.469.14-2.939.281-4.382.421a16.409,16.409,0,0,0-8.488,5.149c-7.738,8.825-2.524,20.5,3.607,28.812a82.929,82.929,0,0,0,24.105,21.557c9.266,5.594,19.114,10.51,25.022,19,5.381,7.7,7.214,16.689,8.184,25.466,1,9.035,1.027,18.138,2.747,27.127a89.953,89.953,0,0,0,8.1,24.434c8.6,16.805,23.829,29.609,45.576,33.354a119.341,119.341,0,0,0,37.06,0c11.317-1.708,22.552-5.173,31.124-11.821,12.22-9.462,17.629-23.326,17.877-37.071C874.366,483.859,856.6,460.715,826.937,446.946Z" transform="translate(-669.165 -367.704)" fill="#5790d3"/>
        <path id="Path_280" data-name="Path 280" d="M856.088,502.47c-2.191-18.093-14.2-33.984-29.322-46.483-16.505-13.6-36.367-22.725-56.118-32.438-9.735-4.8-19.334-10.088-27.295-16.9-7.656-6.529-13.009-14.628-20.166-21.509-7.989-7.652-17.949-11.445-29.931-12.335-.064,0-.126,0-.189-.006,7.1,2.35,13.436,5.836,18.359,10.821,24.965,25.745,52.706,46.809,88.767,63.194,29.668,13.769,47.43,36.913,56.269,63.338A56.026,56.026,0,0,0,856.088,502.47Z" transform="translate(-642.421 -367.57)" fill="#cae5f0"/>
        <path id="Path_281" data-name="Path 281" d="M878.847,472c-13.175-16.782-32.455-29.442-52.677-39.766-10.733-5.475-22-10.2-32.427-16.078-10.846-6.11-19.057-13.529-26.657-22.376-6.6-7.678-13.592-15.494-24.133-19.5-11.568-4.4-24.689-4.378-37.117-3.3-2.828.233-5.6.583-8.322,1.028a1.014,1.014,0,0,0-.276-.045,22.54,22.54,0,0,0-22.831,14.44c-3.66,10.322,2.219,21.252,8.934,29.7a93.775,93.775,0,0,0,25.853,22.047c5.353,3.184,11.012,6.11,15.7,10.017a32.507,32.507,0,0,1,9.461,13.179c3.8,9.62,3.909,19.918,4.659,29.959a113.285,113.285,0,0,0,5.189,27.172c5.657,17.039,16.754,33.7,35.478,42.714,11.179,5.384,24.134,7.445,36.894,7.631s26.048-1.076,38-4.961c20.7-6.693,34.288-21.7,38-40C896.325,505.63,890.916,487.325,878.847,472Zm-9.4,78.034c-8.573,6.648-19.807,10.112-31.124,11.821a119.341,119.341,0,0,1-37.06,0C779.513,558.1,764.282,545.3,755.684,528.5a89.954,89.954,0,0,1-8.1-24.434c-1.72-8.989-1.748-18.093-2.747-27.127-.97-8.777-2.8-17.764-8.184-25.466-5.908-8.495-15.755-13.41-25.022-19a82.929,82.929,0,0,1-24.105-21.557c-6.131-8.309-11.345-19.987-3.607-28.812a16.409,16.409,0,0,1,8.488-5.149c1.444-.14,2.913-.281,4.382-.421a2.794,2.794,0,0,1,.445,0,3.071,3.071,0,0,0,1.275-.164h.028a153.267,153.267,0,0,1,25.577-.749c11.982.89,21.942,4.682,29.931,12.335,7.157,6.881,12.51,14.98,20.166,21.509,7.961,6.812,17.56,12.1,27.295,16.9,19.751,9.713,39.612,18.84,56.118,32.438,15.118,12.5,27.131,28.391,29.322,46.483C888.889,521.357,883.953,538.793,869.445,550.029Z" transform="translate(-673.282 -370.378)" fill="#00318b"/>
        <path id="Path_282" data-name="Path 282" d="M689.87,383.859A315.486,315.486,0,0,1,789.6,463.336c29.168,35.017,49.767,74.487,67.3,114.482,5.056,11.529,9.847,23.14,14.514,34.788q3.552,8.874,7.027,17.769c1.73,4.41,5.9,11.423,1.71,15.708a.953.953,0,0,0,1.055,1.531c10.093-3.432,3.074-15.941.781-21.818-4.334-11.1-8.731-22.181-13.311-33.211-9.059-21.818-18.76-43.5-30.274-64.489-21.026-38.326-47.573-75.4-83.174-105.4-18.948-15.967-40.28-30.229-64.189-40.52C689.719,381.6,688.585,383.205,689.87,383.859Z" transform="translate(-648.288 -356.835)" fill="#00318b"/>
      </g>
    </g>
  </g>
</svg>
